<mxfile host="65bd71144e">
    <diagram id="54sjdRmWtPp7vlW9QLzT" name="Page-1">
        <mxGraphModel dx="1108" dy="500" grid="1" gridSize="10" guides="1" tooltips="1" connect="1" arrows="1" fold="1" page="1" pageScale="1" pageWidth="827" pageHeight="1169" math="0" shadow="0">
            <root>
                <mxCell id="0"/>
                <mxCell id="1" parent="0"/>
                <mxCell id="3" value="&amp;lt;&amp;lt;Domain&amp;gt;&amp;gt;&lt;br style=&quot;font-size: 11px;&quot;&gt;MyOnlineBookstore" style="ellipse;whiteSpace=wrap;html=1;sketch=1;curveFitting=1;jiggle=2;verticalAlign=top;fontSize=11;fontStyle=3" parent="1" vertex="1">
                    <mxGeometry x="4" y="50" width="820" height="480" as="geometry"/>
                </mxCell>
                <mxCell id="14" value="Supply chain" style="text;strokeColor=none;align=center;fillColor=none;html=1;verticalAlign=middle;whiteSpace=wrap;rounded=0;shadow=0;sketch=1;fontSize=17;fontStyle=1" parent="1" vertex="1">
                    <mxGeometry x="20.5" y="172.63" width="200" height="90" as="geometry"/>
                </mxCell>
                <mxCell id="15" value="&lt;meta charset=&quot;utf-8&quot; style=&quot;font-size: 17px;&quot;&gt;&lt;span style=&quot;font-family: Helvetica; font-size: 17px; font-style: normal; font-variant-ligatures: normal; font-variant-caps: normal; letter-spacing: normal; orphans: 2; text-indent: 0px; text-transform: none; widows: 2; word-spacing: 0px; -webkit-text-stroke-width: 0px; text-decoration-thickness: initial; text-decoration-style: initial; text-decoration-color: initial; float: none; display: inline !important;&quot;&gt;Catalog &amp;amp; Inventory&lt;/span&gt;" style="text;whiteSpace=wrap;html=1;fontSize=17;align=center;verticalAlign=middle;fontStyle=1;fillColor=none;labelBackgroundColor=none;fontColor=default;" parent="1" vertex="1">
                    <mxGeometry x="525.87" y="172.63" width="213.46" height="40" as="geometry"/>
                </mxCell>
                <mxCell id="16" value="&lt;span style=&quot;font-family: Helvetica; font-size: 17px; font-style: normal; font-variant-ligatures: normal; font-variant-caps: normal; letter-spacing: normal; orphans: 2; text-indent: 0px; text-transform: none; widows: 2; word-spacing: 0px; -webkit-text-stroke-width: 0px; text-decoration-thickness: initial; text-decoration-style: initial; text-decoration-color: initial; float: none; display: inline !important;&quot;&gt;Products&lt;/span&gt;" style="text;whiteSpace=wrap;html=1;fontSize=17;align=center;verticalAlign=middle;fontStyle=1;fillColor=none;labelBackgroundColor=none;fontColor=default;" parent="1" vertex="1">
                    <mxGeometry x="340.5" y="435" width="140" height="70" as="geometry"/>
                </mxCell>
                <mxCell id="17" value="&lt;meta charset=&quot;utf-8&quot; style=&quot;font-size: 17px;&quot;&gt;&lt;span style=&quot;font-family: Helvetica; font-size: 17px; font-style: normal; font-variant-ligatures: normal; font-variant-caps: normal; letter-spacing: normal; orphans: 2; text-indent: 0px; text-transform: none; widows: 2; word-spacing: 0px; -webkit-text-stroke-width: 0px; text-decoration-thickness: initial; text-decoration-style: initial; text-decoration-color: initial; float: none; display: inline !important;&quot;&gt;Customers&lt;/span&gt;" style="text;whiteSpace=wrap;html=1;fontSize=17;align=center;verticalAlign=middle;fontStyle=1;fillColor=none;labelBackgroundColor=none;fontColor=default;" parent="1" vertex="1">
                    <mxGeometry x="130.5" y="365" width="90" height="40" as="geometry"/>
                </mxCell>
                <mxCell id="19" value="Ordering" style="text;whiteSpace=wrap;html=1;fontSize=17;align=center;verticalAlign=middle;fontStyle=1" parent="1" vertex="1">
                    <mxGeometry x="274" y="110" width="140" height="70" as="geometry"/>
                </mxCell>
                <mxCell id="20" value="&lt;span style=&quot;font-family: Helvetica; font-size: 17px; font-style: normal; font-variant-ligatures: normal; font-variant-caps: normal; letter-spacing: normal; orphans: 2; text-indent: 0px; text-transform: none; widows: 2; word-spacing: 0px; -webkit-text-stroke-width: 0px; text-decoration-thickness: initial; text-decoration-style: initial; text-decoration-color: initial; float: none; display: inline !important;&quot;&gt;Loyalty&lt;/span&gt;" style="text;whiteSpace=wrap;html=1;fontSize=17;align=center;verticalAlign=middle;fontStyle=1;fillColor=none;labelBackgroundColor=none;fontColor=default;" parent="1" vertex="1">
                    <mxGeometry x="290.75" y="282" width="140" height="70" as="geometry"/>
                </mxCell>
                <mxCell id="21" value="&lt;span style=&quot;font-family: Helvetica; font-size: 17px; font-style: normal; font-variant-ligatures: normal; font-variant-caps: normal; letter-spacing: normal; orphans: 2; text-indent: 0px; text-transform: none; widows: 2; word-spacing: 0px; -webkit-text-stroke-width: 0px; text-decoration-thickness: initial; text-decoration-style: initial; text-decoration-color: initial; float: none; display: inline !important;&quot;&gt;Logistics &amp;amp; warehousing&lt;/span&gt;" style="text;whiteSpace=wrap;html=1;fontSize=17;align=center;verticalAlign=middle;fontStyle=1;fillColor=none;labelBackgroundColor=none;fontColor=default;" parent="1" vertex="1">
                    <mxGeometry x="554" y="352" width="140" height="70" as="geometry"/>
                </mxCell>
                <mxCell id="22" value="" style="shape=stencil(pVnbblw3DPyafRUkURfyOUn/I0CcelHXDhw3l78vhfVRrNF27CJv9i7nrESOhkOdk7z7evvxy80px69Pjw9/3Xw/f3q6Pcn7U87n+9ubx/OT/3WSDyd59/nh8ebPx4d/7j9d/v/ycUSOv/5++Dae8OOCSzGGGAcsx5+Xj+YHf1wAd+f73wGYBRWMNxKvoXWIz5XE99AV4qWR+BZagvgqJL6GmCG+s/VIKLhf6yQ+hV6W+BQSyY9a6BniC3m+dtxvouvXFhI+3wqJLyGv8fn44Hp8wvrmUEm9ugUpEK8svgVb9yshkfz0EmKFeLqeFGqEeCX1ahqsLfGF8rl5/iPEN5L/JpjPQvnW0vH1EV9pvarh+is9L7WHmiGe5adW5Gej9aoSOsYz/tcUcod4xp9iyIdO61X8cRniG1lPEcyn0vwXX3+C+GfBuxov/rj1vFgohD/i+rauJ0VaAHG9AUAKkTBibFARoAxQg4AEZXoGhkStmpv4IU5e5JUUqdCukZxksKQaElmSP++5y01Ao1nynPSGAHZw7EjJjO9BExGu0CBHenSS6wdn6xtGG0cJaX2+Nz5atONpM96VlRDbabeyKHNSRMzPEHZSAGf9ut8hvCSfmw96RRj3eC5cEc+9V7CQek0bM+OVUtptCeTfOy3hm1dnJbS40WKn+Ph2xicqdN6m1/pKPpTpbXzzeNb4aijQt4U3SuyrUuh57IdNmvGVnkfDekmjqjhUdpUg6RyQ8QR7b2A7HhoI1iNSL+oaCN7bu5WQPbtEJTBDmZLINQpOsfdPxtJxzNYslUKP2S+7PQGV83r61QloHCA4ARVuKfIk2gRwj+DchrPsLobVwckaV2rUSJvBYDe4xkz7n4uPgQ0UKu9+Hjr8Au+wLj8V9tDoLwz9WbNUNUQOgDq4GWYS7AoE3rfxtA7JWundEnWPrll5JV/L/Bd8PFj30ISqhqsc9KlWjlL+FwDcmo8wNK0Fla91ylYHgFXwoYp62oIeuxn1CrsJ9jGP3WpcAWTabUfzgLFCeOG2LPX6WlrBwPgozKRyp0bv1DXv5OtKZymnt6701sg9QEaTqnPcfuOJ03zs6q2/wOd33zTMg1o5W6fOTUCjxlm2GxRV2h92euur9NaVGhb5pueMPAGZD4V6DDcTwPu0GLZdK7TSJaJ6G6+DWxEY2YzrklsRmDCMF65sV33GhcytiBgCmEcs2+WjKW2KDqgVAawOZebkBYCNPQ6A+y/jFxIO6NseWAdyAEzzA8D20DdqKL2zdABcYRh3xqXjMGBGp3kHqG4AliU3WIYAWmnXiLgBWJa8ZyYEZLYkJ0JGADO6DuiyAfiSdAMws14U/ZIZHbr327wBYJv2JG4Apq1XAayxXwf83yXRA3QVwOpwDUAP0AZ48V7oGeF//Hrr9Pl8d3d5afXye3xL5R9d3nDJh38B);fillColor=none;shadow=0;sketch=1;strokeColor=default;fontSize=17;" parent="1" vertex="1">
                    <mxGeometry x="463.5" y="70" width="118" height="450" as="geometry"/>
                </mxCell>
                <mxCell id="23" value="" style="shape=stencil(lVjZctswDPwavWJIguDxnKb/kZk4jadpnHHc6+8Lj4dKAFur6k2Wd0niWkCc+O79+eFtN6Xwfjoevu9+7x9PzxN/mVLavz7vjvuTPk18P/Hd0+G4+3Y8/Hx9vPx+ezgjz08/Dr/OK/y58AKFcCal8PfyIob51dcL4WX/aggpbiTwVkIVQ+idYlzGRwrN4hvFhvAlWXyhBvCJxK2fKdVlPFNz6+uOAC/EFt8aNeCf6iPQhHJaxneqbv1IFZwnJmJrcG3UUQCEUraEQiEDQqPULYEpA4LGjNkSIo5ZvrJBk04AoRLbrCt6SAaETt3uUAoMMyeKttSKRr4Agtpg3VqYBHiJC+ViCXHE/jah+VIQtQqkXtbatDZIowCMzhpXRxDqHRAKJXekTBHt0H2kJVEBNujf1bpVIsxWPXG12SpYwGQul0HQQyYQh3OYbHrnBuuhqAJZt+ZKHe2gBdk3EapXsTWCmiieUEB6a0HmK0JGujeX/CdCBF5SUWHnpTKq/DYhDxNngozudZtQfD3kTAER2ij5maCyAOqhBS+V3Ec/uk1I3q0qC0gEWiaxycc81PY2oYz2NwhnLQRubZpL9kipkIDUaN03FG2qqKV3zSVrQ8Jyry052x1iHX67TUhjvZmA1VsJrq1Hhm1dCeJ2SMMNSwRXojHgQSD5loUHq85eNDSQGO8kQMOM8b45jNFmCS+uPGFrUHxxmU0RJLbi3eSJO4nim8u6MYou4bsbtmEZ6JwZXICHoC3ho18fNbY+u2/gtb2j82evRWEEZAnvikzFDNsrxeFRn1V8jdvwzdu7gnf1soKX0Y7+017xU+2KP8Xn/0q8hIo9/0o+iPfPSr7pUMHThny+mu3iULAlfLbxXakvlZu6De++jFbxLW/D974FX71/VvHi9YdRfKsfoFb0rY30/cA3FF/9nHCjB9bb7i8fdPAAs5DiJTs8zJ9+Nc7BfvHpYmKJoA8fNylP+5eXy0XM5//9zYu+utza8P0/);fillColor=none;shadow=0;sketch=1;strokeColor=default;fontSize=17;" parent="1" vertex="1">
                    <mxGeometry x="499.5" y="263" width="324" height="48" as="geometry"/>
                </mxCell>
                <mxCell id="24" value="" style="shape=stencil(rZfdbtswDIWfxreE/ildd917FGi6BMuSIk338/aj4dkbKed4wXbnpvwk8uiQsof48LZ/et0Nwb1dL+fPu2+H5+t+iB+GEA6n/e5yuMrTEB+H+PByvuw+Xc7vp+fp79enMXJ8+nL+Oq7wfeIcOTdCwf0wP3ycwo+H07+Eh2TCuaDwXFR4IFdRePMqPFJqt8M9Rb16phBReIsqnCmCZAIVXWqjBpKRVKsK94Fqvh2fKOrlfaYSbsfnbv1KDaxfKLOWXrQH8UxFqyMZcrodX6nq/GUFZAUvxmr6cMU7DABPybghUkU7iOAGYPLIP4m81iiJYcEZyBFlLVKKs6nWAZ79vgBMFe0gsmqVshwbAMae0Snlgm0dqOmiixQNVBLned1mRZzhAcCUzA6VGFhPOotNZwZiUHSUVg4aKBRASuKcpmvgRgHtkIn1XKyeChiMYrWgzVcjFeDW2DVQzbMM6wPDUdJFV6aMJoy3J10bedDSYuaii27LAF8Hcjcjxa2gp1OdzbwAkTJwa3b24Fqer6B1IM0lLkChAlLKbGVtDMeMtMsvMy9AnQfPOpDmKbQAjSJIqbDtaQEqKJq9HWTe4XucU1f1xhYiU7ZAAGOjOtujIlMCMlW5EbuDiKCG0f5GpkIe7CBuTsbfGaokbm4GiHNPrQO5q0GWALJKiUFfEM3D1wwRkZsFAqqhUTIqOThcBWC2QAI9KoA9aUcR3Yque+sUIoBRtk54dBKtGxzLC8jfV7EB1Hwn0Au7BXRFbwC53gmke1OyLbQJ2I7YBELn1w3A/29AHn5/X70cjsfp8+zP/9vvMflp+paLjz8B);fillColor=none;shadow=0;sketch=1;strokeColor=default;fontSize=17;" parent="1" vertex="1">
                    <mxGeometry x="160.5" y="105" width="319.5" height="157.63" as="geometry"/>
                </mxCell>
                <mxCell id="28" value="" style="shape=stencil(pZfdbtswDIWfJreESEmUdN1171Gg6RIsa4o0+3v70cjkRVRygGJ3jnM+25TIQ2oTH953T2/bjYT38+n4dftz/3zebeKnjcj+dbc97c92tYmPm/jwcjxtv5yO31+fL7/fnhblcvXt+GN5wq8LxyFQCAsm4ffl1nrj8wU47F//B2iNmjh9qlDPPOgjxQT0lcr4PYkq1ocy6AsFBfpC3AZ9o4K+XymO38PSv/A2kEl0BDLVCIBEPEbAlVoGQCSuAyBMuQBAiNMIRGoNAIE0joAtm9wHaqPgdjnAba6F8ris0fICxFAz6Rh0VFIQQ41TIgUSFAOTjjEkewTYh9J65q9AIQG5VOzvcR9yoMYAyMRjLmX7JJBLRXx1ZiVBMUw7nSvMJa09xA4oNgC17B8LToUEFJDG6Q2x78xtIPQKXgHzDLDTeY4hw2W1RQwuBrMFBFh9qQcaqIfMlBxQSAGQWre5Fahwp5NSEQ+g9E6J8pga2vAbmNoEKPDi2LzzWToi87aSl+CBhIAplwwoIL3jVA8GVACYMVb1QEOA1fQUAwTEW2Xh3vNuA2a97AEGgPWbGD2QEKDeKg1Ay8qTkZlTBeAaPBWQAREDfg4Q2NitjSe3rNaBQENh6w/uDanPEndmq973VyD3rbwH+FVS6HzWgNwLbBpCLc63RGthGZhMoTJu89IjgQOoXyFrwii1V9dd9avR3naYPgqu+tqL6Y7e+YvNKQrWJ1JysyGTAJsXX/s2aSHTFt//bZRDk95kqDYrIkOdMrStdXdHn9jrYRl7+7XpGBlL6FPmlR4NF1PBmL6CGg4+f5bpHup10qPZJVAWr8ffk5y+QoeYjNr0yIKCP1qYPmP99PwK9c5/ltMb1gevT6Aep7Om6fWD+voR/dXx9i9gF/8Ozy/7w+Fy9r7+3x+27dbloB4f/wA=);fillColor=none;shadow=0;sketch=1;strokeColor=default;fontSize=17;" parent="1" vertex="1">
                    <mxGeometry x="20.5" y="223" width="240" height="124" as="geometry"/>
                </mxCell>
                <mxCell id="29" value="" style="shape=stencil(lZnbUhsxDIafJrca2/JJ17R9D2YIJVNKGKCnt692gjex7P0hd8tG31q2ZOm32fHN68Pt834X3Ovby/HH/s/h7u1hx192IRyeHvYvhzd92vHXHd/cH1/231+Ov57uTn8/3y6Wy9PP4+/lC39PnCPnFii4f+bFt5P54+GpMw/JmPu0be7JizFPcducKffOeAp12zxSCcY887Z5JomdeaAAnBES35kzOfB1H0iysS8Z2GcK/WQjXBsvFHv3E3nw/WV2wdi/L9fcPtlMyO0Dc/vaVu9sX0Cw2JFwZ18oCLDXZPDGviD7TNznWiUGqcmVpBr794DPk81T7O2FEsiHGNvwa3bivRKH/FQAZVAU8qUHPDEIWfLtexeAgJxLcRghtCycA5myARjWkzRktQIZzCEHSqZGRJhHOdkapAAKdC4tj1cgwUgXN4yQyQGXSiDPFkB7vzClYAFBLsVWCVdAdxvIpZIoZgtAl3SKwQKlQCCZ1KjkQRxKGVapti2+BSSxACp5Rb9nRhAKaFmFXLEAKkplaCLaASOIQ3VUe5e0qTECvN1xWvgjmHQNdpW0UaFIV+1j/Y7TTlXBpKv+bCadyYPWUBPlvlRqrY8gNeqQS1q8E3KpEBuXpI25BdR+BO1fEY1Q7RZl37JrCzD9h7UsoMCJbSgKZLSsYuOgPRUln7gmt1YgttK2BZRoAQEuibeihxNVMGkZ0lv7fEZzGGorF9iyZNgPqgxQERDtaEboCRaSuuq9S1FFNlolbvvrAoDLGltxXwHf8ncLMNI5BqgEZOiiqm9QY5ehoSggKHDJ5pIKIrhKyQrKuO7yOZBbv1mBCiufjBJdoMZVgHtAJRcSJxNA0/G6ESJUlRMgwT49AUqrtp8FpJ0SN4E+lzLWrQoY6Z2ZGAfO9IdFBaI9na0yVhX4wbIasZ4rbIpS7HFMZWNFIxQrdAtu7DLoVpWNsLYWe2JVFYgUmdS2JiugkUFFYBBYqtGQ9lbAlEpVUAGPYE6JqqAyHsGoGVVQBaWGxtUAAQeu2uqtgsijbB1PoglPepChKoiQOJHhpFjX7NoCTENRuRLRpEdAoIQbARUTfJVLZzHxeQB20REIWGuMAMM7mSkAs3UE1iP554GEXTKqUvuqwy6ZE/u51W8BaQAqDpw5vC6dG6e3UTNLx8CrZJSxAh+4ZM5xWjzhbaAbLlYFq5M5gQ41c6JeOUYlh24dpwS6SZgT8GZzSiCNMiO0JqKL6CkRrh4jgvoxJ5BenBAXr94RfThf3t8fHh9Pd/+Xv9vLfn11+kcBf/0P);fillColor=none;shadow=0;sketch=1;strokeColor=default;fontSize=17;" parent="1" vertex="1">
                    <mxGeometry x="189.5" y="297" width="135" height="223" as="geometry"/>
                </mxCell>
                <mxCell id="30" value="" style="shape=stencil(lVfLctswDPwaXTEk+ALOafofmYlTa+raGcd9/X3h0VANIAu2bjK9S4LAYkkO6elj//K+GzB8XM6n77vf4+tlP6QvA+J43O/O40W+hvQ8pKe303n37Xz6eXydfr+/XJHXrx+nX9cZ/ky8ACFcSRj+TgMxzENfJ8JhPCpCaorADKWu4xFi1HiC6OBL/3fGVwhlHd+gmfkzlLaOj3EREEJ1NhwloqwJAbKzgygJIUUggoROijKEpAkVIjkEmc8QMmBcJyTZot4DIWB2CBXI7CEAOpvOwWapEVRn0zlB1XVotQd5m9AgGELuI7eVFKCyJgRXqkWUo1eotQd5myBS1itUSbSzQo3QdJZkisQOYSG+koCddqgEWfdnZkhOWlvs6p8JfgNJ1rMOKTGwR5Ak6pCSL++rcrT4RL8trRNormsnIAM6K4j6Y9GECtkjLNSKCcipgzQkmZAiFI8w52R2YobsiI8aIGpCc41MXAh1SGJtzREfMURzOGRIXkgiBO1LEYGcwomTNhNShORkiSWJegUxW0fd4u1oPMBVkuCbrkIF9OJJNqel52wNb6Sd+3F0G59tCRDYMRheNGd0e1PwTecnADuS4AKhGbxneIJHMvjsz286OfSjbg3fLN67XQiebfzebYfn8j+MN/q8i6e4Bb84BO/i0db3Dr6Ebfi2MR7eFM/ihL2Lz5vip24fD+Ob1YOrNwKy8bt6XljunX7hbsgP9iNbfwhAzi1N8NU4uu9vbI+96F59P7021gjy8f/x8jYeDtPb5/P/9rEjQ9NDKT3/Aw==);fillColor=none;shadow=0;sketch=1;strokeColor=default;fontSize=17;" parent="1" vertex="1">
                    <mxGeometry x="320.5" y="346" width="180" height="76" as="geometry"/>
                </mxCell>
                <mxCell id="31" value="&lt;span style=&quot;font-family: Helvetica; font-size: 13px; font-style: normal; font-variant-ligatures: normal; font-variant-caps: normal; letter-spacing: normal; orphans: 2; text-indent: 0px; text-transform: none; widows: 2; word-spacing: 0px; -webkit-text-stroke-width: 0px; text-decoration-thickness: initial; text-decoration-style: initial; text-decoration-color: initial; float: none; display: inline !important;&quot;&gt;Suppliers&lt;/span&gt;" style="text;whiteSpace=wrap;html=1;fontSize=13;align=center;verticalAlign=middle;fontStyle=0;fillColor=none;labelBackgroundColor=none;fontColor=default;" parent="1" vertex="1">
                    <mxGeometry x="4" y="250" width="113.5" height="40" as="geometry"/>
                </mxCell>
                <mxCell id="32" value="&lt;span style=&quot;font-family: Helvetica; font-size: 13px; font-style: normal; font-variant-ligatures: normal; font-variant-caps: normal; letter-spacing: normal; orphans: 2; text-indent: 0px; text-transform: none; widows: 2; word-spacing: 0px; -webkit-text-stroke-width: 0px; text-decoration-thickness: initial; text-decoration-style: initial; text-decoration-color: initial; float: none; display: inline !important;&quot;&gt;Procurement&lt;/span&gt;" style="text;whiteSpace=wrap;html=1;fontSize=13;align=center;verticalAlign=middle;fontStyle=0;fillColor=none;labelBackgroundColor=none;fontColor=default;" parent="1" vertex="1">
                    <mxGeometry x="76" y="150" width="113.5" height="40" as="geometry"/>
                </mxCell>
                <mxCell id="33" value="&lt;span style=&quot;font-family: Helvetica; font-size: 13px; font-style: normal; font-variant-ligatures: normal; font-variant-caps: normal; letter-spacing: normal; orphans: 2; text-indent: 0px; text-transform: none; widows: 2; word-spacing: 0px; -webkit-text-stroke-width: 0px; text-decoration-thickness: initial; text-decoration-style: initial; text-decoration-color: initial; float: none; display: inline !important;&quot;&gt;Warehousing&lt;/span&gt;" style="text;whiteSpace=wrap;html=1;fontSize=13;align=center;verticalAlign=middle;fontStyle=0;fillColor=none;labelBackgroundColor=none;fontColor=default;" parent="1" vertex="1">
                    <mxGeometry x="517.27" y="422" width="113.5" height="40" as="geometry"/>
                </mxCell>
                <mxCell id="34" value="&lt;span style=&quot;font-family: Helvetica; font-size: 13px; font-style: normal; font-variant-ligatures: normal; font-variant-caps: normal; letter-spacing: normal; orphans: 2; text-indent: 0px; text-transform: none; widows: 2; word-spacing: 0px; -webkit-text-stroke-width: 0px; text-decoration-thickness: initial; text-decoration-style: initial; text-decoration-color: initial; float: none; display: inline !important;&quot;&gt;Packaging&lt;/span&gt;" style="text;whiteSpace=wrap;html=1;fontSize=13;align=center;verticalAlign=middle;fontStyle=0;fillColor=none;labelBackgroundColor=none;fontColor=default;" parent="1" vertex="1">
                    <mxGeometry x="517.27" y="320" width="113.5" height="40" as="geometry"/>
                </mxCell>
                <mxCell id="35" value="&lt;span style=&quot;font-family: Helvetica; font-size: 13px; font-style: normal; font-variant-ligatures: normal; font-variant-caps: normal; letter-spacing: normal; orphans: 2; text-indent: 0px; text-transform: none; widows: 2; word-spacing: 0px; -webkit-text-stroke-width: 0px; text-decoration-thickness: initial; text-decoration-style: initial; text-decoration-color: initial; float: none; display: inline !important;&quot;&gt;Shipping&lt;/span&gt;" style="text;whiteSpace=wrap;html=1;fontSize=13;align=center;verticalAlign=middle;fontStyle=0;fillColor=none;labelBackgroundColor=none;fontColor=default;" parent="1" vertex="1">
                    <mxGeometry x="674" y="307" width="113.5" height="40" as="geometry"/>
                </mxCell>
                <mxCell id="36" value="&lt;span style=&quot;font-family: Helvetica; font-size: 13px; font-style: normal; font-variant-ligatures: normal; font-variant-caps: normal; letter-spacing: normal; orphans: 2; text-indent: 0px; text-transform: none; widows: 2; word-spacing: 0px; -webkit-text-stroke-width: 0px; text-decoration-thickness: initial; text-decoration-style: initial; text-decoration-color: initial; float: none; display: inline !important;&quot;&gt;Points&lt;/span&gt;" style="text;whiteSpace=wrap;html=1;fontSize=13;align=center;verticalAlign=middle;fontStyle=0;fillColor=none;labelBackgroundColor=none;fontColor=default;" parent="1" vertex="1">
                    <mxGeometry x="234" y="257" width="113.5" height="40" as="geometry"/>
                </mxCell>
                <mxCell id="37" value="&lt;span style=&quot;font-family: Helvetica; font-size: 13px; font-style: normal; font-variant-ligatures: normal; font-variant-caps: normal; letter-spacing: normal; orphans: 2; text-indent: 0px; text-transform: none; widows: 2; word-spacing: 0px; -webkit-text-stroke-width: 0px; text-decoration-thickness: initial; text-decoration-style: initial; text-decoration-color: initial; float: none; display: inline !important;&quot;&gt;Membership&lt;/span&gt;" style="text;whiteSpace=wrap;html=1;fontSize=13;align=center;verticalAlign=middle;fontStyle=0;fillColor=none;labelBackgroundColor=none;fontColor=default;" parent="1" vertex="1">
                    <mxGeometry x="304" y="352" width="113.5" height="40" as="geometry"/>
                </mxCell>
                <mxCell id="38" value="&lt;span style=&quot;font-family: Helvetica; font-size: 13px; font-style: normal; font-variant-ligatures: normal; font-variant-caps: normal; letter-spacing: normal; orphans: 2; text-indent: 0px; text-transform: none; widows: 2; word-spacing: 0px; -webkit-text-stroke-width: 0px; text-decoration-thickness: initial; text-decoration-style: initial; text-decoration-color: initial; float: none; display: inline !important;&quot;&gt;Customer&lt;br&gt;Activity&lt;/span&gt;" style="text;whiteSpace=wrap;html=1;fontSize=13;align=center;verticalAlign=middle;fontStyle=0;fillColor=none;labelBackgroundColor=none;fontColor=default;" parent="1" vertex="1">
                    <mxGeometry x="377.88" y="275" width="113.5" height="40" as="geometry"/>
                </mxCell>
                <mxCell id="39" value="&lt;span style=&quot;font-family: Helvetica; font-size: 13px; font-style: normal; font-variant-ligatures: normal; font-variant-caps: normal; letter-spacing: normal; orphans: 2; text-indent: 0px; text-transform: none; widows: 2; word-spacing: 0px; -webkit-text-stroke-width: 0px; text-decoration-thickness: initial; text-decoration-style: initial; text-decoration-color: initial; float: none; display: inline !important;&quot;&gt;Addesses&lt;/span&gt;" style="text;whiteSpace=wrap;html=1;fontSize=13;align=center;verticalAlign=middle;fontStyle=0;fillColor=none;labelBackgroundColor=none;fontColor=default;" parent="1" vertex="1">
                    <mxGeometry x="200.25" y="450" width="113.5" height="40" as="geometry"/>
                </mxCell>
                <mxCell id="40" value="&lt;span style=&quot;font-family: Helvetica; font-size: 13px; font-style: normal; font-variant-ligatures: normal; font-variant-caps: normal; letter-spacing: normal; orphans: 2; text-indent: 0px; text-transform: none; widows: 2; word-spacing: 0px; -webkit-text-stroke-width: 0px; text-decoration-thickness: initial; text-decoration-style: initial; text-decoration-color: initial; float: none; display: inline !important;&quot;&gt;Contact Details&lt;/span&gt;" style="text;whiteSpace=wrap;html=1;fontSize=13;align=center;verticalAlign=middle;fontStyle=0;fillColor=none;labelBackgroundColor=none;fontColor=default;" parent="1" vertex="1">
                    <mxGeometry x="94" y="410" width="113.5" height="40" as="geometry"/>
                </mxCell>
                <mxCell id="41" value="&lt;span style=&quot;font-family: Helvetica; font-size: 13px; font-style: normal; font-variant-ligatures: normal; font-variant-caps: normal; letter-spacing: normal; orphans: 2; text-indent: 0px; text-transform: none; widows: 2; word-spacing: 0px; -webkit-text-stroke-width: 0px; text-decoration-thickness: initial; text-decoration-style: initial; text-decoration-color: initial; float: none; display: inline !important;&quot;&gt;Identity&lt;/span&gt;" style="text;whiteSpace=wrap;html=1;fontSize=13;align=center;verticalAlign=middle;fontStyle=0;fillColor=none;labelBackgroundColor=none;fontColor=default;" parent="1" vertex="1">
                    <mxGeometry x="147" y="320" width="113.5" height="40" as="geometry"/>
                </mxCell>
                <mxCell id="42" value="&lt;span style=&quot;font-family: Helvetica; font-size: 13px; font-style: normal; font-variant-ligatures: normal; font-variant-caps: normal; letter-spacing: normal; orphans: 2; text-indent: 0px; text-transform: none; widows: 2; word-spacing: 0px; -webkit-text-stroke-width: 0px; text-decoration-thickness: initial; text-decoration-style: initial; text-decoration-color: initial; float: none; display: inline !important;&quot;&gt;Orders&lt;/span&gt;" style="text;whiteSpace=wrap;html=1;fontSize=13;align=center;verticalAlign=middle;fontStyle=0;fillColor=none;labelBackgroundColor=none;fontColor=default;" parent="1" vertex="1">
                    <mxGeometry x="317.25" y="197.63" width="113.5" height="40" as="geometry"/>
                </mxCell>
                <mxCell id="43" value="&lt;span style=&quot;font-family: Helvetica; font-size: 13px; font-style: normal; font-variant-ligatures: normal; font-variant-caps: normal; letter-spacing: normal; orphans: 2; text-indent: 0px; text-transform: none; widows: 2; word-spacing: 0px; -webkit-text-stroke-width: 0px; text-decoration-thickness: initial; text-decoration-style: initial; text-decoration-color: initial; float: none; display: inline !important;&quot;&gt;Products&lt;/span&gt;" style="text;whiteSpace=wrap;html=1;fontSize=13;align=center;verticalAlign=middle;fontStyle=0;fillColor=none;labelBackgroundColor=none;fontColor=default;" parent="1" vertex="1">
                    <mxGeometry x="394" y="405" width="113.5" height="40" as="geometry"/>
                </mxCell>
                <mxCell id="44" value="&lt;span style=&quot;font-family: Helvetica; font-size: 13px; font-style: normal; font-variant-ligatures: normal; font-variant-caps: normal; letter-spacing: normal; orphans: 2; text-indent: 0px; text-transform: none; widows: 2; word-spacing: 0px; -webkit-text-stroke-width: 0px; text-decoration-thickness: initial; text-decoration-style: initial; text-decoration-color: initial; float: none; display: inline !important;&quot;&gt;Articles&lt;/span&gt;" style="text;whiteSpace=wrap;html=1;fontSize=13;align=center;verticalAlign=middle;fontStyle=0;fillColor=none;labelBackgroundColor=none;fontColor=default;" parent="1" vertex="1">
                    <mxGeometry x="320.5" y="485" width="113.5" height="40" as="geometry"/>
                </mxCell>
                <mxCell id="45" value="&lt;span style=&quot;font-family: Helvetica; font-size: 13px; font-style: normal; font-variant-ligatures: normal; font-variant-caps: normal; letter-spacing: normal; orphans: 2; text-indent: 0px; text-transform: none; widows: 2; word-spacing: 0px; -webkit-text-stroke-width: 0px; text-decoration-thickness: initial; text-decoration-style: initial; text-decoration-color: initial; float: none; display: inline !important;&quot;&gt;Offers &amp;amp; Campaigns&lt;/span&gt;" style="text;whiteSpace=wrap;html=1;fontSize=13;align=center;verticalAlign=middle;fontStyle=0;fillColor=none;labelBackgroundColor=none;fontColor=default;" parent="1" vertex="1">
                    <mxGeometry x="507.5" y="230" width="113.5" height="40" as="geometry"/>
                </mxCell>
                <mxCell id="46" value="&lt;span style=&quot;font-family: Helvetica; font-size: 13px; font-style: normal; font-variant-ligatures: normal; font-variant-caps: normal; letter-spacing: normal; orphans: 2; text-indent: 0px; text-transform: none; widows: 2; word-spacing: 0px; -webkit-text-stroke-width: 0px; text-decoration-thickness: initial; text-decoration-style: initial; text-decoration-color: initial; float: none; display: inline !important;&quot;&gt;Inventory&lt;/span&gt;" style="text;whiteSpace=wrap;html=1;fontSize=13;align=center;verticalAlign=middle;fontStyle=0;fillColor=none;labelBackgroundColor=none;fontColor=default;" parent="1" vertex="1">
                    <mxGeometry x="544" y="110" width="113.5" height="40" as="geometry"/>
                </mxCell>
                <mxCell id="47" value="&lt;span style=&quot;font-family: Helvetica; font-size: 13px; font-style: normal; font-variant-ligatures: normal; font-variant-caps: normal; letter-spacing: normal; orphans: 2; text-indent: 0px; text-transform: none; widows: 2; word-spacing: 0px; -webkit-text-stroke-width: 0px; text-decoration-thickness: initial; text-decoration-style: initial; text-decoration-color: initial; float: none; display: inline !important;&quot;&gt;Product Catalog&lt;/span&gt;" style="text;whiteSpace=wrap;html=1;fontSize=13;align=center;verticalAlign=middle;fontStyle=0;fillColor=none;labelBackgroundColor=none;fontColor=default;" parent="1" vertex="1">
                    <mxGeometry x="661" y="223" width="113.5" height="40" as="geometry"/>
                </mxCell>
                <mxCell id="48" value="&lt;span style=&quot;font-family: Helvetica; font-size: 13px; font-style: normal; font-variant-ligatures: normal; font-variant-caps: normal; letter-spacing: normal; orphans: 2; text-indent: 0px; text-transform: none; widows: 2; word-spacing: 0px; -webkit-text-stroke-width: 0px; text-decoration-thickness: initial; text-decoration-style: initial; text-decoration-color: initial; float: none; display: inline !important;&quot;&gt;Payment&lt;/span&gt;" style="text;whiteSpace=wrap;html=1;fontSize=13;align=center;verticalAlign=middle;fontStyle=0;fillColor=none;labelBackgroundColor=none;fontColor=default;" parent="1" vertex="1">
                    <mxGeometry x="189.5" y="90" width="113.5" height="40" as="geometry"/>
                </mxCell>
            </root>
        </mxGraphModel>
    </diagram>
</mxfile>